<svg version="1" xmlns="http://www.w3.org/2000/svg" width="2730.667" height="2730.667" viewBox="0 0 2048.000000 2048.000000"><path d="M988 .6c-63 2.9-110.7 8.6-165.5 19.5C546 75.3 304.6 242.7 154.3 483.5 70.8 617.4 19.1 771 4.6 928.5c-3.3 35.3-4 53.4-4 95.5s.7 60.2 4 95.5c14.5 157.5 66.2 311.1 149.7 445 123.3 197.6 309.3 347.3 527.8 424.8 63.4 22.6 128.6 38.6 196.9 48.6 71.3 10.4 157.8 12.9 232 6.5 163.4-13.9 317.8-65.5 457.1-152.7 129.6-81.2 242.4-194 323.6-323.6 24.2-38.7 52.6-92 69.3-130.1 52.2-119.4 79.7-237.1 86.1-368.5 1.3-26.6.7-88.6-1.1-113-7.8-107.4-28.6-202-65.7-299-89.7-234.1-264.3-428.8-487.8-544-124-64-255.6-100.6-399-111C1073.9 1 1004.8-.2 988 .6zm84 96.4c0 14.8.3 27 .8 27 2.7 0 30.4 2.3 43.2 3.5 171.7 17.1 334.7 83.6 470 192 46.9 37.6 93.4 83.1 131.5 129 118.4 142.3 190.2 318.2 204.5 501 .6 7.7 1.3 16.8 1.6 20.2l.6 6.3h53.8v96h-53.8l-.6 6.2c-.3 3.5-1 12.6-1.6 20.3-14.3 183.3-86.5 359.8-205.3 502-34.2 40.8-75.4 82-116.2 116.2-141.9 118.5-316.3 190-500.5 205.2-6.9.6-16 1.3-20.2 1.6l-7.8.7v53.8h-96v-53.8l-6.2-.6c-3.5-.3-12.6-1-20.3-1.6-26.7-2.1-63.9-7-90.5-11.9-179.6-33.4-341.2-118.5-471-248.1-37.8-37.7-65.3-69.8-95.5-111.5-95.4-131.6-154.2-291.2-166.5-452-.6-7.7-1.3-16.8-1.6-20.3l-.6-6.2H70v-96h27c14.9 0 27-.3 27-.8 0-3.8 2.5-32.6 4.1-47.9C150.9 709 253.6 506.9 417.5 357.5c141.9-129.3 320.2-209.6 509.8-229.4 15.3-1.6 44.1-4.1 48-4.1.4 0 .7-12.2.7-27V70h96v27z"/><path d="M970 220.7c-1.9.1-9.3.8-16.5 1.3-31.3 2.6-66.1 7.9-100 15.2-225.8 48.5-421.6 194.6-534.9 399C265 733.1 230.7 845.9 222 954c-.6 7.4-1.2 15.4-1.5 17.7l-.5 4.3h102v96H220l.5 4.2c.3 2.4.9 10.4 1.5 17.8 2.5 31.3 7.8 66.2 15.2 100.5 48.5 225.8 194.6 421.6 399 534.9 96.9 53.6 209.7 87.9 317.8 96.6 7.4.6 15.4 1.2 17.8 1.5l4.2.5v-102h96v101.9l5.3-.5c88.7-7.4 153.2-21.3 229.2-49.6 35.5-13.2 82.3-35.1 115-53.9 189.4-108.7 326.1-286.4 381.4-495.9 12.2-46.4 19.6-91.6 24.5-150.8l.5-5.2H1726v-96h101.9l-.5-5.3c-6.9-82.8-19.2-142.7-43.6-212.7-80-229.3-264.5-413.8-493.8-493.8-70-24.4-129.9-36.7-212.7-43.6l-5.3-.5V322h-96v-51c0-40.2-.3-51-1.2-50.8-.7 0-2.9.3-4.8.5zm329.8 281.7c64.1 9.6 120.7 40.8 162.6 89.7 27.1 31.6 45.7 67.7 55.7 108.4 1.6 6.6 3.2 14.7 3.5 18l.6 6-7.7 11.5c-10.5 15.8-20.2 27.4-34.1 41.2-13.7 13.4-20.7 19.4-42.9 36.2-26 19.7-32.7 27.7-32.7 38.7.1 9.3 7.8 21.8 18.1 29.3 6.4 4.7 16.9 9.8 25.6 12.5 8.1 2.5 27.8 6.1 33.6 6.1h4l-5.2 7.7c-13 19.4-33.7 42.2-51.8 56.9-7.8 6.3-8.2 6.9-6.5 8.2 1.1.7 5.7 3.8 10.4 6.9 54.1 35.6 88 95.1 92 161.7 2.2 36 .6 99.1-3.1 124.9-11.1 77.6-45.2 146.3-99.9 201.8-56.2 56.9-128.9 93.1-207.8 103.4-23.4 3-48.8 3.5-206.2 3.4-198.6 0-218.9-.5-252-6.5-57.7-10.4-111.1-33.1-158.4-67.2-52.2-37.5-96.1-90.4-123.4-148.2-18-38.2-28.9-76.5-34.9-122-1.6-12.4-1.8-29.6-2-220.5l-.4-207 28.7 38.5c31.7 42.6 43.8 56 62.4 69.2 19.4 13.8 45.2 25 68.9 29.8 20.2 4.1 29.6 4.3 205.8 3.6 185.8-.8 172.9-.3 187.3-7.3 10.4-5.1 22.1-16.8 27.2-27.3 5.7-11.6 7.1-18.4 6.5-32-.4-10.7-.8-12.5-5.6-25.9-11.1-31-16.1-59.2-16.1-90.7 0-58 19.5-114.5 55.8-161.3 8.7-11.2 33.3-35.9 44.3-44.4 39.6-30.5 83.9-48.4 133.9-54.3 14.5-1.7 49.5-1.1 63.8 1z"/><path d="M1334.2 718c-6.4 1.3-13.9 5.8-18.7 11.3-11.7 12.9-11.5 32.9.5 46 16.7 18.2 46.3 13.5 56.8-9 2.2-4.9 2.7-7.2 2.6-14.3 0-9.2-1.7-14.6-7-21.6-7.3-9.5-22.1-14.9-34.2-12.4z"/></svg>